<?xml version="1.0" encoding="iso-8859-1"?>
<!-- Uploaded to: SVG Repo, www.svgrepo.com, Generator: SVG Repo Mixer Tools -->
<svg version="1.1" id="Layer_1" xmlns="http://www.w3.org/2000/svg" xmlns:xlink="http://www.w3.org/1999/xlink" 
	 viewBox="0 0 512 512" xml:space="preserve">
<circle style="fill:#232323;" cx="256" cy="256" r="256"/>
<g>
	<rect x="113.424" y="376.08" style="fill:#CCCBCA;" width="285.144" height="8"/>
	<rect x="157.296" y="400.08" style="fill:#CCCBCA;" width="197.408" height="8"/>
</g>
<g>
	<path style="fill:#FFFFFF;" d="M110.08,192.088c0-6.912,0.632-12.832,1.888-17.76s2.928-9.072,5.016-12.44
		c2.08-3.368,4.472-6.04,7.168-8s5.464-3.48,8.304-4.528s5.672-1.728,8.488-2.024c2.816-0.288,5.392-0.44,7.736-0.44
		c6.04,0,11.192,0.784,15.48,2.328c4.272,1.552,7.784,3.64,10.504,6.24c2.72,2.608,4.704,5.64,5.928,9.104
		c1.232,3.464,1.84,7.096,1.84,10.896c0,2.056-0.184,4.312-0.568,6.776s-0.976,4.92-1.8,7.384h-17.32v-4.568
		c0-4.568-0.28-8.296-0.832-11.168s-1.408-5.144-2.544-6.816c-1.152-1.672-2.592-2.816-4.352-3.432s-3.872-0.92-6.336-0.92
		c-5.04,0-8.888,1.712-11.552,5.144c-2.672,3.432-4,8.92-4,16.488v28.92c2.224-2.464,5.144-4.52,8.744-6.192
		c3.608-1.672,7.784-2.504,12.528-2.504c3.4,0,6.84,0.544,10.328,1.624c3.488,1.088,6.648,3.024,9.496,5.808s5.16,6.56,6.944,11.344
		c1.792,4.776,2.688,10.88,2.688,18.328v14.592c0,8.032-0.832,14.8-2.504,20.304c-1.672,5.512-4.064,9.976-7.168,13.408
		c-3.112,3.432-6.84,5.904-11.208,7.432s-9.272,2.288-14.728,2.288c-6.16,0-11.592-0.824-16.304-2.464
		c-4.72-1.64-8.704-4.28-11.96-7.912c-3.248-3.632-5.712-8.368-7.384-14.192c-1.672-5.832-2.504-12.936-2.504-21.32v-61.728H110.08z
		 M133.12,262.328c0,6.92,1.184,12.016,3.552,15.296c2.376,3.288,6.144,4.92,11.296,4.92c4.512,0,7.832-1.608,9.936-4.832
		c2.112-3.224,3.168-8.064,3.168-14.504V240.88c0-3.632-0.32-6.688-0.968-9.152c-0.64-2.464-1.552-4.44-2.728-5.928
		c-1.168-1.504-2.576-2.56-4.216-3.208c-1.64-0.64-3.488-0.968-5.536-0.968c-1.576,0-3.088,0.232-4.52,0.704s-2.776,1.088-4,1.848
		c-1.232,0.76-2.344,1.64-3.344,2.632c-0.992,1-1.872,1.992-2.632,2.992v32.528H133.12z"/>
	<path style="fill:#FFFFFF;" d="M202.136,191.12c0-6.56,0.592-12.232,1.8-17.008s2.784-8.792,4.752-12.048
		c1.96-3.248,4.232-5.872,6.816-7.864s5.232-3.528,7.952-4.616c2.728-1.08,5.456-1.8,8.176-2.152s5.224-0.528,7.512-0.528
		c2.168,0,4.584,0.168,7.248,0.488c2.672,0.32,5.368,1,8.096,2.024s5.36,2.52,7.904,4.488c2.552,1.96,4.808,4.584,6.776,7.864
		c1.96,3.28,3.544,7.328,4.752,12.136c1.192,4.808,1.8,10.544,1.8,17.224v63.48c0,6.56-0.6,12.232-1.8,17.008
		c-1.2,4.784-2.808,8.832-4.8,12.176s-4.272,6.056-6.848,8.136c-2.584,2.08-5.216,3.696-7.912,4.832
		c-2.696,1.144-5.384,1.912-8.048,2.328c-2.664,0.408-5.056,0.616-7.168,0.616c-2.344,0-4.888-0.208-7.648-0.616
		c-2.76-0.416-5.504-1.184-8.264-2.328c-2.752-1.144-5.408-2.744-7.952-4.792c-2.544-2.056-4.792-4.752-6.728-8.096
		c-1.936-3.336-3.488-7.416-4.656-12.216c-1.176-4.808-1.76-10.496-1.76-17.056V191.12z M225.432,264.184
		c0,6.208,1.128,10.72,3.384,13.536s5.696,4.216,10.328,4.216c4.512,0,7.88-1.408,10.112-4.216
		c2.224-2.824,3.344-7.328,3.344-13.536v-81.32c0-6.56-1.12-11.344-3.344-14.336c-2.224-2.984-5.592-4.48-10.112-4.48
		c-4.632,0-8.072,1.496-10.328,4.48c-2.256,2.992-3.384,7.776-3.384,14.336V264.184z"/>
	<path style="fill:#FFFFFF;" d="M317.08,212.912c-2.544,0-5.112-0.36-7.68-1.072c-2.576-0.72-4.896-2.12-6.984-4.192
		c-2.08-2.08-3.768-5.032-5.064-8.856s-1.944-8.84-1.944-15.064v-7.176c0-4.072,0.312-7.592,0.936-10.568
		c0.624-2.968,1.488-5.504,2.584-7.616c1.096-2.104,2.36-3.8,3.792-5.096s2.952-2.304,4.56-3.024c1.608-0.712,3.256-1.2,4.928-1.48
		c1.68-0.264,3.328-0.4,4.936-0.4c1.512,0,3.112,0.128,4.76,0.368c1.656,0.24,3.28,0.728,4.864,1.448
		c1.584,0.712,3.104,1.712,4.528,2.984s2.68,2.96,3.76,5.064c1.072,2.104,1.92,4.656,2.544,7.648c0.624,3,0.936,6.552,0.936,10.672
		v7.176c0,6.136-0.688,11.104-2.08,14.928c-1.384,3.832-3.144,6.792-5.264,8.888s-4.456,3.52-6.976,4.256
		C321.696,212.552,319.312,212.912,317.08,212.912z M317.216,202.248c2.824,0,4.792-1.216,5.904-3.664
		c1.12-2.44,1.68-6.224,1.68-11.368v-13.024c0-5.184-0.56-9.008-1.68-11.472s-3.088-3.696-5.904-3.696
		c-2.952,0-5.024,1.232-6.2,3.696c-1.184,2.464-1.784,6.28-1.784,11.472v13.024c0,5.144,0.592,8.928,1.784,11.368
		C312.192,201.032,314.264,202.248,317.216,202.248z M357.744,149.776h12.144l-30.8,115.88H326.88L357.744,149.776z M357.88,230.296
		c0-6.136,0.68-11.04,2.048-14.736c1.368-3.688,3.112-6.528,5.232-8.512c2.128-1.992,4.464-3.312,7.008-3.96
		c2.552-0.648,5.016-0.976,7.384-0.976c1.52,0,3.112,0.128,4.768,0.376c1.656,0.24,3.272,0.728,4.864,1.44
		c1.584,0.72,3.096,1.712,4.528,2.984c1.432,1.28,2.68,2.968,3.752,5.072c1.08,2.104,1.928,4.656,2.552,7.648
		c0.624,3,0.936,6.552,0.936,10.672v7.176c0,4.12-0.328,7.696-0.968,10.736c-0.656,3.04-1.52,5.632-2.616,7.784
		c-1.104,2.152-2.36,3.912-3.8,5.304c-1.432,1.384-2.936,2.488-4.52,3.288c-1.592,0.808-3.208,1.352-4.864,1.64
		s-3.216,0.44-4.696,0.44c-1.704,0-3.416-0.152-5.136-0.44c-1.728-0.288-3.384-0.816-4.968-1.576
		c-1.584-0.76-3.088-1.832-4.496-3.216c-1.416-1.392-2.632-3.16-3.656-5.304c-1.032-2.144-1.848-4.752-2.456-7.816
		s-0.904-6.68-0.904-10.832v-7.192H357.88z M371.632,240.96c0,5.152,0.592,8.936,1.776,11.376s3.256,3.656,6.208,3.656
		c2.824,0,4.784-1.216,5.904-3.656s1.672-6.224,1.672-11.376v-13.016c0-5.184-0.552-9.016-1.672-11.48
		c-1.128-2.456-3.088-3.688-5.904-3.688c-2.952,0-5.024,1.232-6.208,3.688c-1.176,2.464-1.776,6.288-1.776,11.48V240.96z"/>
</g>
</svg>