<?xml version="1.0" encoding="iso-8859-1"?>
<!-- Uploaded to: SVG Repo, www.svgrepo.com, Generator: SVG Repo Mixer Tools -->
<svg version="1.1" id="Layer_1" xmlns="http://www.w3.org/2000/svg" xmlns:xlink="http://www.w3.org/1999/xlink" 
	 viewBox="0 0 512 512" xml:space="preserve">
<circle style="fill:#232323;" cx="256" cy="256" r="256"/>
<g>
	<rect x="113.424" y="376.08" style="fill:#CCCBCA;" width="285.144" height="8"/>
	<rect x="157.296" y="400.08" style="fill:#CCCBCA;" width="197.408" height="8"/>
</g>
<g>
	<path style="fill:#FFFFFF;" d="M108.576,252.824c0-4.4,0.472-8.296,1.408-11.696s2.24-6.392,3.912-8.968s3.648-4.792,5.928-6.632
		c2.288-1.848,4.752-3.448,7.392-4.8v-0.704c-1.936-1.056-3.88-2.368-5.848-3.952c-1.96-1.584-3.736-3.528-5.312-5.84
		c-1.584-2.32-2.872-5.04-3.872-8.176c-0.992-3.136-1.496-6.728-1.496-10.768v-10.552c0-4.856,0.584-9.08,1.76-12.656
		s2.712-6.624,4.616-9.144s4.12-4.56,6.64-6.112c2.512-1.552,5.112-2.776,7.776-3.648c2.672-0.88,5.336-1.472,8-1.768
		c2.672-0.288,5.12-0.44,7.344-0.44c2.288,0,4.752,0.152,7.384,0.44c2.64,0.296,5.304,0.88,8,1.768
		c2.696,0.872,5.288,2.096,7.784,3.648c2.496,1.544,4.704,3.568,6.64,6.064c1.928,2.496,3.488,5.52,4.656,9.104
		c1.168,3.568,1.76,7.792,1.76,12.656v10.544c0,4.048-0.496,7.64-1.496,10.776s-2.288,5.856-3.864,8.168
		c-1.584,2.32-3.36,4.264-5.32,5.848c-1.96,1.576-3.912,2.896-5.84,3.952v0.704c2.696,1.352,5.168,2.944,7.432,4.792
		c2.248,1.848,4.216,4.064,5.888,6.64c1.664,2.576,2.968,5.568,3.904,8.968s1.408,7.296,1.408,11.688v9.232
		c0,5.16-0.52,9.672-1.576,13.536s-2.504,7.208-4.352,10.024c-1.848,2.816-4,5.128-6.464,6.944s-5.12,3.264-7.96,4.352
		s-5.8,1.84-8.872,2.28c-3.08,0.448-6.144,0.664-9.184,0.664s-6.104-0.216-9.152-0.664c-3.048-0.44-5.992-1.184-8.832-2.24
		s-5.504-2.496-7.96-4.352c-2.464-1.84-4.584-4.16-6.376-6.944s-3.2-6.112-4.256-9.976s-1.584-8.376-1.584-13.536v-9.224H108.576z
		 M131.704,263.896c0,3.808,0.424,6.928,1.272,9.36c0.84,2.432,1.96,4.336,3.336,5.712c1.376,1.384,2.976,2.336,4.8,2.856
		c1.816,0.528,3.688,0.792,5.624,0.792c1.928,0,3.824-0.256,5.672-0.792c1.84-0.52,3.472-1.496,4.872-2.896s2.544-3.328,3.432-5.76
		s1.32-5.552,1.32-9.368v-16.52c0-3.28-0.336-6.08-1.016-8.4c-0.672-2.312-1.624-4.216-2.848-5.712
		c-1.232-1.504-2.728-2.576-4.488-3.256c-1.76-0.672-3.696-1.008-5.808-1.008h-2.192c-4.28,0-7.68,1.48-10.2,4.44
		c-2.512,2.96-3.776,7.632-3.776,14.024V263.896z M147.872,212.64c1.704,0,3.296-0.272,4.792-0.832
		c1.504-0.552,2.808-1.504,3.912-2.848c1.12-1.352,1.992-3.168,2.64-5.456c0.64-2.288,0.96-5.16,0.96-8.616v-12.4
		c0-6.208-1.04-10.928-3.12-14.152c-2.08-3.224-5.496-4.832-10.24-4.832s-8.136,1.64-10.16,4.92
		c-2.016,3.28-3.032,8.032-3.032,14.24v12.304c0,3.344,0.28,6.144,0.832,8.4s1.36,4.072,2.416,5.456
		c1.056,1.376,2.336,2.36,3.832,2.944s3.176,0.872,5.056,0.872L147.872,212.64L147.872,212.64z"/>
	<path style="fill:#FFFFFF;" d="M201.776,191.184c0-6.56,0.592-12.232,1.8-17.008s2.784-8.792,4.752-12.048
		c1.96-3.248,4.232-5.872,6.816-7.864s5.232-3.528,7.952-4.616c2.728-1.08,5.456-1.8,8.176-2.152s5.224-0.528,7.512-0.528
		c2.168,0,4.584,0.168,7.248,0.488c2.672,0.32,5.368,1,8.096,2.024c2.728,1.024,5.36,2.52,7.904,4.488
		c2.552,1.96,4.808,4.584,6.776,7.864c1.96,3.28,3.544,7.328,4.752,12.136c1.192,4.808,1.8,10.544,1.8,17.224v63.48
		c0,6.56-0.6,12.232-1.8,17.008c-1.2,4.784-2.808,8.832-4.8,12.176s-4.272,6.056-6.848,8.136c-2.584,2.08-5.216,3.696-7.912,4.832
		s-5.384,1.912-8.048,2.328c-2.664,0.408-5.056,0.616-7.168,0.616c-2.344,0-4.888-0.208-7.648-0.616
		c-2.76-0.416-5.504-1.184-8.264-2.328c-2.752-1.144-5.408-2.744-7.952-4.792c-2.544-2.056-4.792-4.752-6.728-8.096
		c-1.936-3.336-3.488-7.416-4.656-12.216c-1.176-4.808-1.76-10.496-1.76-17.056L201.776,191.184L201.776,191.184z M225.072,264.248
		c0,6.208,1.128,10.72,3.384,13.536S234.152,282,238.784,282c4.512,0,7.88-1.408,10.112-4.216c2.224-2.824,3.344-7.328,3.344-13.536
		v-81.32c0-6.56-1.12-11.344-3.344-14.336c-2.224-2.984-5.592-4.48-10.112-4.48c-4.632,0-8.072,1.496-10.328,4.48
		c-2.256,2.992-3.384,7.776-3.384,14.336V264.248z"/>
	<path style="fill:#FFFFFF;" d="M316.72,212.984c-2.544,0-5.112-0.36-7.68-1.072c-2.576-0.72-4.896-2.12-6.984-4.192
		c-2.08-2.08-3.768-5.032-5.064-8.856s-1.944-8.84-1.944-15.064v-7.176c0-4.072,0.312-7.592,0.936-10.568
		c0.624-2.968,1.488-5.504,2.584-7.616c1.096-2.104,2.36-3.8,3.792-5.096s2.952-2.304,4.56-3.024c1.608-0.712,3.256-1.2,4.928-1.48
		c1.68-0.264,3.328-0.4,4.936-0.4c1.512,0,3.112,0.128,4.76,0.368c1.656,0.24,3.28,0.728,4.864,1.448
		c1.584,0.712,3.104,1.712,4.528,2.984s2.68,2.96,3.76,5.064c1.072,2.104,1.92,4.656,2.544,7.648c0.624,3,0.936,6.552,0.936,10.672
		v7.176c0,6.136-0.688,11.104-2.08,14.928c-1.384,3.832-3.144,6.792-5.264,8.888s-4.456,3.52-6.976,4.256
		C321.336,212.616,318.952,212.984,316.72,212.984z M316.848,202.32c2.824,0,4.792-1.216,5.904-3.664
		c1.12-2.44,1.68-6.224,1.68-11.368v-13.024c0-5.184-0.56-9.008-1.68-11.472s-3.088-3.696-5.904-3.696
		c-2.952,0-5.024,1.232-6.2,3.696c-1.184,2.464-1.784,6.28-1.784,11.472v13.024c0,5.144,0.592,8.928,1.784,11.368
		C311.824,201.104,313.896,202.32,316.848,202.32z M357.384,149.84h12.144l-30.8,115.88H326.52L357.384,149.84z M357.512,230.368
		c0-6.136,0.68-11.04,2.048-14.736c1.368-3.688,3.112-6.528,5.232-8.512c2.128-1.992,4.464-3.312,7.008-3.96
		c2.552-0.648,5.016-0.976,7.384-0.976c1.52,0,3.112,0.128,4.768,0.376c1.656,0.24,3.272,0.728,4.864,1.44
		c1.584,0.72,3.096,1.712,4.528,2.984c1.432,1.28,2.68,2.968,3.752,5.072c1.08,2.104,1.928,4.656,2.552,7.648
		c0.624,3,0.936,6.552,0.936,10.672v7.176c0,4.12-0.328,7.696-0.968,10.736c-0.656,3.04-1.52,5.632-2.616,7.784
		c-1.104,2.152-2.36,3.912-3.8,5.304c-1.432,1.384-2.936,2.488-4.52,3.288c-1.592,0.808-3.208,1.352-4.864,1.64
		s-3.216,0.44-4.696,0.44c-1.704,0-3.416-0.152-5.136-0.44c-1.728-0.288-3.384-0.816-4.968-1.576
		c-1.584-0.76-3.088-1.832-4.496-3.216c-1.416-1.392-2.632-3.16-3.656-5.304c-1.032-2.144-1.848-4.752-2.456-7.816
		s-0.904-6.68-0.904-10.832v-7.192H357.512z M371.272,241.032c0,5.152,0.592,8.936,1.776,11.376s3.256,3.656,6.208,3.656
		c2.824,0,4.784-1.216,5.904-3.656s1.672-6.224,1.672-11.376v-13.016c0-5.184-0.552-9.016-1.672-11.48
		c-1.128-2.456-3.088-3.688-5.904-3.688c-2.952,0-5.024,1.232-6.208,3.688c-1.176,2.464-1.776,6.288-1.776,11.48V241.032z"/>
</g>
</svg>